<?xml version="1.0" encoding="UTF-8"?>
<!-- (c) Carrd Inc. All rights reserved. All logos and trademarks are property of their respective owners. -->
<svg xmlns="http://www.w3.org/2000/svg" version="1.1" xmlns:xlink="http://www.w3.org/1999/xlink" viewBox="0 0 40 40" display="none" width="0" height="0">
	<symbol id="bluesky" viewBox="0 0 40 40"><path d="M20,19.7c-1.6-3.1-5.9-8.8-9.9-11.6C6.2,5.4,4.8,5.9,3.8,6.3C2.7,6.8,2.5,8.5,2.5,9.5s0.6,8.2,0.9,9.4 c1.2,4,5.4,5.3,9.3,4.9c0.2,0,0.4-0.1,0.6-0.1c-0.2,0-0.4,0.1-0.6,0.1C7,24.7,1.9,26.8,8.6,34.2c7.3,7.6,10-1.6,11.4-6.3 c1.4,4.7,3,13.5,11.3,6.3c6.2-6.3,1.7-9.5-4-10.3c-0.2,0-0.4,0-0.6-0.1c0.2,0,0.4,0.1,0.6,0.1c3.9,0.4,8.1-0.9,9.3-4.9 c0.4-1.2,0.9-8.4,0.9-9.4s-0.2-2.7-1.3-3.2c-1-0.4-2.4-0.9-6.3,1.8C25.9,10.9,21.6,16.7,20,19.7z"/></symbol>
	<symbol id="linkedin" viewBox="0 0 40 40"><path d="M12.1,13.8v19.1H5.7V13.8C5.7,13.8,12.1,13.8,12.1,13.8z M12.5,7.9c0,0.9-0.3,1.7-1,2.4c-0.7,0.6-1.5,0.9-2.6,0.9h0 c-1.1,0-1.9-0.3-2.5-0.9c-0.6-0.6-1-1.4-1-2.4c0-1,0.3-1.7,1-2.4S7.9,4.6,9,4.6s1.9,0.3,2.6,0.9S12.5,6.9,12.5,7.9z M35,22v11h-6.4 V22.7c0-1.4-0.3-2.4-0.8-3.2c-0.5-0.8-1.3-1.1-2.4-1.1c-0.8,0-1.5,0.2-2,0.7c-0.5,0.4-1,1-1.2,1.7c-0.1,0.4-0.2,0.9-0.2,1.6v10.7 h-6.4c0-5.1,0-9.3,0-12.5s0-5.1,0-5.7l0-0.9H22v2.8h0c0.3-0.4,0.5-0.8,0.8-1.1c0.3-0.3,0.6-0.6,1.1-1c0.5-0.4,1-0.6,1.7-0.8 c0.7-0.2,1.4-0.3,2.2-0.3c2.2,0,4,0.7,5.3,2.2C34.4,17,35,19.1,35,22L35,22z"/></symbol>
	<symbol id="amazon" viewBox="0 0 40 40"><path d="M29.4,16.6c0,1.3,0,2.7,0,4c-0.1,1.5,0.4,2.8,1.4,4c0.1,0.1,0.2,0.3,0.3,0.4c0.3,0.5,0.3,0.9-0.2,1.3c-1,0.8-2,1.7-3,2.6 c-0.6,0.5-1,0.5-1.6,0c-0.8-0.7-1.5-1.5-2-2.4c-0.1-0.2-0.2-0.2-0.4,0c-1,1-2.1,1.9-3.4,2.4c-2.1,0.7-4.2,0.8-6.3,0.1 c-2-0.7-3.2-2.2-3.7-4.3c-0.5-2.3-0.2-4.5,1.2-6.5c1.1-1.5,2.6-2.4,4.3-2.9c1.8-0.5,3.6-0.8,5.5-0.9c0.5-0.1,1-0.1,1.6-0.2 c0.1,0,0.2,0,0.2-0.2c0-0.8,0.1-1.7-0.1-2.5c-0.3-1.1-1-1.7-2-1.9c-0.8-0.2-1.5-0.1-2.3,0.1c-1.1,0.4-1.8,1.2-2.1,2.3 c-0.2,0.6-0.4,0.9-1.1,0.8c-1.3-0.1-2.6-0.3-3.9-0.4c-0.5-0.1-0.8-0.5-0.7-1c0.7-3.3,2.9-5.2,6-6.1c2.4-0.7,4.9-0.7,7.3,0 c1.9,0.5,3.6,1.5,4.5,3.4c0.5,1.1,0.6,2.3,0.7,3.4C29.4,13.6,29.4,15.1,29.4,16.6C29.4,16.6,29.4,16.6,29.4,16.6z M23.1,19.1 c0-0.4,0-0.8,0-1.2c0-0.2-0.1-0.3-0.3-0.3c-0.6,0.1-1.2,0.1-1.8,0.1c-1.1,0.1-2.1,0.4-3,1.1c-1.3,1-1.5,2.3-1.3,3.8 c0.2,1.8,1.8,2.8,3.5,2.2c1.2-0.4,1.9-1.3,2.3-2.3C23.1,21.5,23.1,20.3,23.1,19.1z M20.2,37.2c-6.1,0-11.6-1.6-16.6-4.9 c-1-0.7-2-1.4-2.9-2.2c-0.1-0.1-0.2-0.1-0.2-0.2c-0.1-0.1-0.2-0.3,0-0.4c0.1-0.2,0.3-0.2,0.4-0.1c0.4,0.2,0.7,0.4,1,0.5 c3.2,1.7,6.5,2.9,10,3.6c3.2,0.7,6.3,1,9.6,0.9c4.6-0.1,9.1-1.1,13.4-2.8c0.2-0.1,0.4-0.2,0.6-0.2c0.3-0.1,0.6,0,0.7,0.3 c0.1,0.3,0,0.5-0.3,0.7c-0.2,0.1-0.3,0.2-0.5,0.4c-2.8,1.8-5.8,2.9-9,3.7C24.3,37,22.2,37.2,20.2,37.2z M35.6,30.1 c-0.9,0-1.8,0.1-2.7,0.2c-0.2,0-0.4,0.1-0.5-0.1c-0.1-0.2,0.1-0.3,0.2-0.4c1.1-0.8,2.4-1.1,3.8-1.1c0.9-0.1,1.8,0,2.7,0.3 c0.4,0.1,0.6,0.4,0.6,0.8c0,2.2-0.8,4.2-2.4,5.7c-0.1,0.1-0.1,0.1-0.2,0.2c-0.1,0.1-0.3,0.2-0.5,0.1c-0.1-0.1-0.1-0.3,0-0.4 c0.5-1.2,1-2.3,1.2-3.6c0-0.2,0-0.3,0-0.5c0-0.5-0.2-0.7-0.7-0.9C36.7,30.1,36.1,30.1,35.6,30.1z"/></symbol>
	<symbol id="email" viewBox="0 0 40 40"><path d="M37.5,12.6l-17.5,11.9L2.5,12.6c-.2-.1-.3-.2-.5-.2v-2.7c0-.8.6-1.4,1.4-1.4h33.1c.8,0,1.4.6,1.4,1.4v2.7c-.2,0-.4,0-.5.2ZM19.5,26.3c.2.1.3.2.5.2s.4,0,.5-.2l17.5-11.9v16.9c0,.8-.6,1.4-1.4,1.4H3.4c-.8,0-1.4-.6-1.4-1.4V14.4l17.5,11.9Z" /></symbol>
	<symbol id="location" viewBox="0 0 40 40"><path d="M20.6,37.7c-.4.4-.8.4-1.3,0-4.5-7.6-9.5-16.6-9.5-24.2S14.3,3,20,3s10.2,4.1,10.2,10.5-5.1,16.6-9.5,24.2ZM20,8c-3,0-5.5,2.5-5.5,5.5s2.5,5.5,5.5,5.5,5.5-2.5,5.5-5.5-2.5-5.5-5.5-5.5Z" /></symbol>
	<symbol id="fax" viewBox="0 0 40 40"><path d="M33.9,34.5H12.3c-1.1-.1-2-1.1-2.1-2.2V12.9c.2-1.2,1.1-2.1,2.3-2.1v-6.4c0-.5.4-.9.9-.9h19.6c.4.1.6.5.7.9v6.5c1.2,0,2.2.9,2.3,2.1v19.4c-.1,1.1-1,2.1-2.1,2.2ZM30.3,21.5c0-.2-.1-.4-.4-.4-.3,0-1.4,0-1.6,0-.2,0-.3.2-.3.4,0,.3,0,1.1,0,1.4,0,.2,0,.3.3.4.2,0,1.4,0,1.6,0,.2,0,.3,0,.4-.3,0-.2,0-1.3,0-1.6ZM30.2,25.5c0-.2-.2-.2-.4-.3-.3,0-1.3,0-1.6,0-.2,0-.3.2-.3.4,0,.2,0,1.3,0,1.5,0,.1.2.3.3.3.2,0,1.3,0,1.5,0,0,0,.2,0,.3-.1,0,0,.1-.2.1-.3,0-.2,0-1.4,0-1.6ZM28,31.1c0,.2.1.3.3.4.2,0,1.3,0,1.6,0,.2,0,.4-.1.4-.3,0-.2,0-1.4,0-1.6,0-.2,0-.3-.2-.4-.2,0-1.3,0-1.6,0-.2,0-.4.2-.4.4,0,.3,0,1.2,0,1.4ZM24,31.4s0,0,.1.1c.2,0,1.4,0,1.6,0,.2,0,.3,0,.4-.2,0-.2,0-1.2,0-1.5,0-.3-.2-.5-.5-.5-.3,0-1.2,0-1.4,0,0,0-.2,0-.3.1-.2.2-.2,1.7,0,2ZM23.9,26.9c0,.2.1.5.4.5.2,0,1.2,0,1.5,0,.2,0,.4,0,.4-.3,0-.2,0-1.2,0-1.5,0-.3-.2-.5-.4-.5-.2,0-1.4,0-1.6,0,0,0-.2.1-.2.2-.1.2-.1,1.2,0,1.5ZM26.2,21.6c0-.2-.1-.4-.3-.5-.1,0-1.6,0-1.8,0,0,0-.1,0-.2.1-.2.2-.1,1.2-.1,1.5,0,.2,0,.5.3.5.2,0,1.3,0,1.6,0,.2,0,.3-.1.4-.3,0-.2,0-1.2,0-1.5ZM20,31.4s.1.1.2.1c.2,0,1.4,0,1.6,0,.2,0,.3,0,.4-.3.1-.3.1-1.6,0-1.9,0,0-.2-.1-.4-.2-.3,0-1.2,0-1.4,0-.2,0-.4.2-.4.5,0,.3,0,1.4,0,1.6ZM19.9,27c0,.2,0,.4.3.4.2,0,1.3,0,1.6,0,.4,0,.5-.3.5-.6,0-.3,0-1.5-.3-1.6-.1,0-1.5,0-1.7,0,0,0-.2,0-.2.2-.1.2-.1,1.3-.1,1.6ZM22.3,21.6c0-.3,0-.5-.4-.5-.2,0-1.5,0-1.6,0,0,0-.2.1-.2.2-.1.2-.1,1.2,0,1.5,0,.2.1.4.3.5.2,0,1.3,0,1.6,0,.2,0,.3,0,.4-.2,0-.2,0-1.2,0-1.5ZM15.9,31.1c0,.3.2.4.4.4.3,0,1.1,0,1.4,0,.2,0,.3-.1.4-.3,0-.2,0-1.3,0-1.6,0-.2,0-.3-.2-.3-.2-.1-1.4-.1-1.7,0-.2,0-.4.2-.4.4,0,.3,0,1.2,0,1.5ZM18.2,25.7c0,0,0-.2-.1-.3,0,0-.1,0-.2-.1-.2,0-1.3,0-1.6,0-.2,0-.3.1-.4.3,0,.2,0,1.3,0,1.6,0,.2.2.4.4.4.2,0,1.3,0,1.5,0,.1,0,.3-.2.3-.3,0-.2,0-1.2,0-1.5ZM15.9,23c0,.2,0,.3.3.4.2,0,1.4,0,1.6,0,.2,0,.3,0,.4-.3,0-.2,0-1.3,0-1.5,0-.3-.1-.4-.4-.4-.3,0-1.4,0-1.6,0-.2,0-.3.2-.3.3,0,.3,0,1.2,0,1.5ZM14.3,17.8c0,.3.3.6.7.6,5.5,0,10.9,0,16.4,0,.3-.1.4-.3.5-.6,0-1,.2-2.3,0-3.2,0-.4-.4-.6-.7-.7H15.1c-.4.1-.7.4-.8.8,0,1,0,2,0,3ZM31.9,5.3H14.2v5.5h17.7v-5.5ZM7.2,34.3c-.6.2-2.4.2-3.1.2-1.1-.1-2-1.1-2.1-2.1V12.9c.1-1.1,1-2,2.1-2.1.6,0,2.3,0,2.9,0,.9.2,1.6,1.1,1.8,2v19.4c0,.8-.7,1.7-1.5,2Z" /></symbol>
	<symbol id="mobile" viewBox="0 0 40 40"><path d="M25.9,38.5h-11.8c-2.8,0-5-2.2-5-5V6.5c0-2.8,2.2-5,5-5h11.8c2.8,0,5,2.2,5,5v27c0,2.8-2.2,5-5,5ZM28.5,6.5c0-1.4-1.2-2.6-2.6-2.6h-11.8c-1.4,0-2.6,1.2-2.6,2.6v27c0,1.4,1.2,2.6,2.6,2.6h11.8c1.4,0,2.6-1.2,2.6-2.6V6.5ZM23.5,8.3h-6.9c-.5,0-.9-.4-.9-.9s.4-.9.9-.9h6.9c.5,0,.9.4.9.9s-.4.9-.9.9Z" /></symbol>
	<symbol id="globe" viewBox="0 0 40 40"><path d="M20,3C10.6,3,3,10.6,3,20s7.6,17,17,17s17-7.6,17-17S29.4,3,20,3z M34.8,18.9h-6.2c-0.1-2.2-0.3-4.2-0.8-6.1 c1.5-0.4,3-0.9,4.2-1.5c0.6,0.9,1.2,1.8,1.6,2.9C34.3,15.7,34.7,17.3,34.8,18.9z M25.7,26.7c-1.5-0.3-3.1-0.4-4.6-0.5v-5.1h5.4 c-0.1,1.8-0.3,3.5-0.6,5.1C25.8,26.3,25.8,26.5,25.7,26.7z M14.2,26.2c-0.3-1.6-0.6-3.3-0.6-5.1h5.4v5.1c-1.6,0-3.2,0.2-4.6,0.5 C14.2,26.5,14.2,26.3,14.2,26.2z M14.3,13.3c1.5,0.3,3.1,0.4,4.6,0.5v5.1h-5.4c0.1-1.8,0.3-3.5,0.6-5.1 C14.2,13.7,14.2,13.5,14.3,13.3z M21.1,5.4C21.4,5.6,21.7,5.7,22,6c0.8,0.7,1.6,1.7,2.2,3c0.4,0.7,0.7,1.5,0.9,2.3 c-1.3,0.2-2.7,0.4-4,0.4V5.4z M18,6c0.3-0.3,0.6-0.4,0.9-0.6v6.2c-1.4,0-2.8-0.2-4-0.4c0.3-0.8,0.6-1.6,0.9-2.3 C16.5,7.7,17.2,6.7,18,6z M18.9,28.4v6.2c-0.3-0.1-0.6-0.3-0.9-0.6c-0.8-0.7-1.6-1.7-2.2-3c-0.4-0.7-0.7-1.5-0.9-2.3 C16.2,28.6,17.5,28.4,18.9,28.4z M22,34c-0.3,0.3-0.6,0.4-0.9,0.6v-6.2c1.4,0,2.8,0.2,4,0.4c-0.3,0.8-0.6,1.6-0.9,2.3 C23.5,32.3,22.8,33.3,22,34z M21.1,18.9v-5.1c1.6,0,3.2-0.2,4.6-0.5c0,0.2,0.1,0.4,0.1,0.5c0.3,1.6,0.6,3.3,0.6,5.1H21.1z M30.5,9.5 c0,0,0.1,0.1,0.1,0.1c-1,0.4-2.2,0.8-3.4,1.1c-0.6-1.9-1.4-3.5-2.4-4.8c0.3,0.1,0.6,0.2,0.9,0.3C27.5,7.1,29.1,8.1,30.5,9.5z M14.2,6.3c0.3-0.1,0.6-0.2,0.9-0.3c-0.9,1.3-1.7,2.9-2.4,4.8c-1.2-0.3-2.3-0.7-3.4-1.1c0,0,0.1-0.1,0.1-0.1 C10.9,8.1,12.5,7.1,14.2,6.3z M7.9,11.4c1.3,0.6,2.7,1.1,4.2,1.5c-0.4,1.9-0.7,3.9-0.8,6.1H5.2c0.1-1.6,0.5-3.2,1.1-4.7 C6.8,13.2,7.3,12.3,7.9,11.4z M5.2,21.1h6.2c0.1,2.2,0.3,4.2,0.8,6.1c-1.5,0.4-3,0.9-4.2,1.5c-0.6-0.9-1.2-1.8-1.6-2.9 C5.7,24.3,5.3,22.7,5.2,21.1z M9.5,30.5c0,0-0.1-0.1-0.1-0.1c1-0.4,2.2-0.8,3.4-1.1c0.6,1.9,1.4,3.5,2.4,4.8 c-0.3-0.1-0.6-0.2-0.9-0.3C12.5,32.9,10.9,31.9,9.5,30.5z M25.8,33.7c-0.3,0.1-0.6,0.2-0.9,0.3c0.9-1.3,1.7-2.9,2.4-4.8 c1.2,0.3,2.3,0.7,3.4,1.1c0,0-0.1,0.1-0.1,0.1C29.1,31.9,27.5,32.9,25.8,33.7z M32.1,28.6c-1.3-0.6-2.7-1.1-4.2-1.5 c0.4-1.9,0.7-3.9,0.8-6.1h6.2c-0.1,1.6-0.5,3.2-1.1,4.7C33.2,26.8,32.7,27.7,32.1,28.6z"/></symbol>
	<symbol id="gamepad" viewBox="0 0 40 40"><path d="M36.3,32.1c-2.6,0.7-5.5-0.9-6.8-3.5l-2.9-6.2H20h-6.6l-2.9,6.2c-1.2,2.6-4.1,4.2-6.8,3.5 c-2.6-0.7-4.2-3.4-3.5-6L2,19.3C2,19.2,2,19.1,2.1,19l1.5-5.8c0.8-3,3.9-5.4,6.9-5.4H20h9.5c3,0,6.1,2.4,6.9,5.4l1.5,5.8 c0,0.1,0.1,0.2,0.1,0.3l1.8,6.8C40.5,28.7,39,31.4,36.3,32.1z M16.2,15c0-0.5-0.4-0.9-0.9-0.9h-2.5v-2.5c0-0.5-0.4-0.9-0.9-0.9H11 c-0.5,0-0.9,0.4-0.9,0.9v2.5H7.5c-0.5,0-0.9,0.4-0.9,0.9v0.8c0,0.5,0.4,0.9,0.9,0.9h2.6v2.6c0,0.5,0.4,0.9,0.9,0.9h0.8 c0.5,0,0.9-0.4,0.9-0.9v-2.6h2.5c0.5,0,0.9-0.4,0.9-0.9V15z M25.4,13.8c-0.9,0-1.7,0.7-1.7,1.7s0.7,1.7,1.7,1.7 c0.9,0,1.7-0.7,1.7-1.7S26.3,13.8,25.4,13.8z M28.7,10.5c-0.9,0-1.7,0.7-1.7,1.7c0,0.9,0.7,1.7,1.7,1.7c0.9,0,1.7-0.7,1.7-1.7 C30.3,11.2,29.6,10.5,28.7,10.5z M28.7,17c-0.9,0-1.7,0.7-1.7,1.7c0,0.9,0.7,1.7,1.7,1.7c0.9,0,1.7-0.7,1.7-1.7 C30.3,17.8,29.6,17,28.7,17z M31.9,13.8c-0.9,0-1.7,0.7-1.7,1.7s0.7,1.7,1.7,1.7c0.9,0,1.7-0.7,1.7-1.7S32.9,13.8,31.9,13.8z"/></symbol>
	<symbol id="upload" viewBox="0 0 40 40"><path d="M2.7,35.4v-2.2c0-.5.4-1,1-1h32.7c.5,0,1,.4,1,1v2.2c0,.5-.4,1-1,1H3.7c-.5,0-1-.4-1-1ZM16.9,5.4l2.3-2.3c.4-.4,1-.4,1.4,0l2.3,2.3h0l10.1,10.1c.4.4.4,1,0,1.4l-2.3,2.3c-.4.4-1,.4-1.4,0l-6.7-6.7v15.4c0,.6-.5,1-1,1h-3.2c-.6,0-1-.5-1-1v-15.4l-6.8,6.8c-.4.4-1,.4-1.4,0l-2.3-2.3c-.4-.4-.4-1,0-1.4l10-10.2h0Z" /></symbol>
	<symbol id="camera" viewBox="0 0 40 40"><path d="M34.8,34H5.2C2.9,34,1,32.1,1,29.8v-17c0-2.3,1.9-4.2,4.2-4.2h4.6h0.1c1.4,0,1.6-1.5,1.6-2.3S12.7,4,13.8,4 c0.6,0,6.1,0,6.1,0s5.5,0,6.1,0c1.2,0,2.3,1.4,2.3,2.3s0.2,2.3,1.6,2.3H30h4.8c2.3,0,4.2,1.9,4.2,4.2v17C39,32.1,37.1,34,34.8,34z M6.3,12.4c-0.8,0-1.5,0.7-1.5,1.5c0,0.8,0.7,1.5,1.5,1.5s1.5-0.7,1.5-1.5C7.8,13,7.1,12.4,6.3,12.4z M20,11.5c-5,0-9,4-9,9s4,9,9,9 s9-4,9-9S25,11.5,20,11.5z M19.9,27.2c-3.8,0-6.8-3.1-6.8-6.8s3.1-6.8,6.8-6.8s6.8,3.1,6.8,6.8S23.7,27.2,19.9,27.2z"/></symbol>
	<symbol id="message" viewBox="0 0 40 40"><path d="M33.1,7.2H7.6c-3.1,0-4.6,1.3-4.6,3.9v15.5c0,3.1,1.5,4.6,4.6,4.6h4.4v5.4c0,.8,0,1.4.4,1.9.3.2.6.3.8.3.4,0,.7-.2,1-.7l5.4-7h12.6c3.1,0,4.6-1.5,4.6-4.6v-15.5c0-2.6-1.3-3.9-3.9-3.9h0Z" /></symbol>
	<symbol id="home" viewBox="0 0 40 40"><path d="M2.4,16.9s.2.2.5.2h2.2s0,0,.1-.1l14.5-8.8c.2-.1.4-.1.6,0l14.5,8.8s0,0,.1.1h2.1c.3,0,.5-.2.5-.2.5-.5.5-1.5,0-2,0,0-2.4-1.5-5.4-3.3v-5.6c0-.5-.4-1-1-1h-2.7c-.5,0-1,.4-1,1v2.8c-3.1-1.9-6-3.7-7.2-4.4-.3-.2-.6-.2-.9,0C16.8,6,2.4,14.9,2.4,14.9c-.5.5-.5,1.5,0,2.1ZM5.5,18.1s0,0,0,0v15.2c0,1,.5,1.5,1.5,1.5h9.3v-9.9c0-.5.4-1,1-1h5.6c.5,0,1,.4,1,1v9.9h9.3c1,0,1.5-.5,1.5-1.5v-15.2c-.1,0-14.5-8.7-14.5-8.7,0,0-14.4,8.7-14.5,8.7Z" /></symbol>
</svg>
